<?xml version="1.0" encoding="utf-8"?>
<!-- Generator: Adobe Illustrator 18.0.0, SVG Export Plug-In . SVG Version: 6.00 Build 0)  -->
<!DOCTYPE svg PUBLIC "-//W3C//DTD SVG 1.1//EN" "http://www.w3.org/Graphics/SVG/1.1/DTD/svg11.dtd">
<svg version="1.1" id="Layer_1" xmlns="http://www.w3.org/2000/svg" xmlns:xlink="http://www.w3.org/1999/xlink" x="0px" y="0px"
	 viewBox="547.9 684.5 140 140" enable-background="new 547.9 684.5 140 140" xml:space="preserve">
<g display="none">
	<g display="inline">
		<path d="M1409.1,61.4L1409.1,61.4C1409.1,61.4,1409.6,61.4,1409.1,61.4C1409.6,61.4,1409.1,61.4,1409.1,61.4z"/>
	</g>
	<g display="inline">
		<path d="M1629.2,79.8c-10.5-2.6-21-4.6-32-6.7c-31.5-5.9-64.3-8.4-97-10.5c32,1.3,64.8,3.8,97,10.5
			C1608.3,75.2,1618.7,77.8,1629.2,79.8z"/>
	</g>
	<g display="inline">
		<path d="M250.4,100.1c-9.7,3.8-19.7,8.4-29.4,13.8c-9.7,5.1-18.9,10.5-28.2,15.6c9.2-5.9,18.4-11.3,28.2-15.6
			C230.7,108.5,240.4,103.9,250.4,100.1z"/>
	</g>
	<g display="inline">
		<path d="M-5.3,1639.4c-1.3-10.5-2.6-21.5-3.3-32C-7.4,1617.9-6.6,1628.4-5.3,1639.4z"/>
	</g>
	<g display="inline">
		<path d="M55.6,265.9c8.4-13.8,17.7-26.9,27.6-39.9C73.3,238.3,64.3,251.3,55.6,265.9z"/>
	</g>
	<g display="inline">
		<path d="M1720.9,113.9c9.7,5.1,18.9,10.5,28.2,15.6C1739.8,123.6,1730.1,118.5,1720.9,113.9c-11.8-5.9-23.6-11.3-36.1-15.6
			C1696.6,102.6,1708.6,108,1720.9,113.9z"/>
	</g>
	<g display="inline">
		<path d="M83.8,226c9.7-12.5,21-24.8,32-36.1C104.3,200.9,93.8,213.5,83.8,226z"/>
	</g>
	<g display="inline">
		<path d="M1950.3,497.1c1.3,16.4,2,32.8,2,48.4C1952.3,529.9,1951.5,513.5,1950.3,497.1z"/>
	</g>
	<g display="inline">
		<path d="M1947.7,465.1c1.3,10.5,2,21.5,2.6,32C1949.8,486.6,1949,475.6,1947.7,465.1z"/>
	</g>
	<g display="inline">
		<path d="M64.8,1836c-5.9-9.2-11.8-18.4-17.2-27.6C53.1,1817.8,58.9,1827,64.8,1836z"/>
	</g>
	<g display="inline">
		<path d="M1943.9,433.1c1.3,10.5,2.6,21.5,3.8,32C1946.9,454.6,1945.7,443.3,1943.9,433.1z"/>
	</g>
	<g display="inline">
		<path d="M1920.1,339.2c-5.9-15.1-11.8-30.2-19.7-45.3c-7.2-14.3-15.6-28.2-24.8-42c9.2,13.8,17.2,27.6,24.8,42
			C1908.3,309.2,1914.9,323.5,1920.1,339.2z"/>
	</g>
	<g display="inline">
		<path d="M1928.8,419.3c-7.2-42.5-20.2-81.9-39.4-119.3c-19.7-37.9-44.5-72.2-73.5-100.9c-29.4-29.4-63.5-54.3-100.9-73.5
			c-37.9-18.9-76.8-31.5-119.3-39.4c-42-7.9-85.8-9.7-127.2-11.3c-9.7,0-20.2,0-29.4-0.8c-9.7,0-19.7-0.8-29.4-0.8h-70.1h-269.8H873
			H602.9h-70.7c-19.7,0-39.4,0-58.9,0.8c-35.3,1.3-82.7,3.3-127.2,11.3c-42.5,7.2-80.6,19.7-119.3,39.4
			c-37.9,19.7-72.2,44.5-100.9,73.5c-29.4,29.4-54.3,63.5-73.5,100.9C33.6,337.1,21.1,376,13.1,418.5c-7.9,42-9.7,85.8-11.3,127.2
			c0,9.7,0,20.2-0.8,29.4c0,9.7-0.8,19.7-0.8,29.4v70.1v270.1v196.6v270.1v70.1c0,19.7,0,39.4,0.8,58.9
			c1.3,35.3,3.3,82.7,11.3,127.2c7.2,42.5,20.2,81.9,39.4,119.3c19.7,37.9,44.5,72.2,73.5,100.9c29.4,29.4,63.5,54.3,100.9,73.5
			c37.9,18.9,76.8,31.5,119.3,39.4c42,7.9,85.8,9.7,127.2,11.3c9.7,0,20.2,0,29.4,0.8c9.7,0,19.7,0.8,29.4,0.8h70.1h270.1h447.5
			h18.9h70.1c19.7,0,39.4,0,58.9-0.8c35.3-1.3,82.7-3.3,127.2-11.3c42.5-7.2,80.6-19.7,119.3-39.4c37.9-19.7,72.2-44.5,100.9-73.5
			c29.4-29.4,54.3-63.5,73.5-100.9c18.9-37.9,31.5-76.8,39.4-119.3c7.9-42,9.7-85.8,11.3-127.2c0-9.7,0-20.2,0.8-29.4
			c0-9.7,0.8-19.7,0.8-29.4v-70.1v-269.6V946.1V676.1v-70.7c0-19.7,0-39.4-0.8-58.9C1938.5,510.9,1936.4,464.3,1928.8,419.3z"/>
	</g>
	<g display="inline">
		<path d="M1825.1,189.9c15.1,15.1,29.4,32,42,49.2C1854.5,221.4,1840.2,205,1825.1,189.9z"/>
	</g>
	<g display="inline">
		<path d="M1690.7,1988.1c9.7-3.8,19.7-8.4,29.4-13.8c4.6-2.6,9.7-5.1,14.3-7.9c-4.6,2.6-9.2,5.1-14.3,7.9
			C1710.4,1979.6,1700.7,1984.2,1690.7,1988.1z"/>
	</g>
	<g display="inline">
		<path d="M1857.3,1862.4c16.4-21,31.5-44,43.3-68.1c7.2-15.1,13.8-29.4,19.7-45.3c-5.9,15.1-11.8,30.2-19.7,45.3
			C1888.8,1818.3,1874.2,1841.4,1857.3,1862.4z"/>
	</g>
	<g display="inline">
		<path d="M1857.3,1862.4c-9.7,12.5-21,24.8-32,36.1C1836.9,1887.2,1847.4,1875.4,1857.3,1862.4z"/>
	</g>
	<g display="inline">
		<path d="M1581.9,2017.7c5.1-0.8,10.5-2,15.6-2.6c5.1-0.8,11.3-2,16.4-3.3c-5.1,1.3-10.5,2-16.4,3.3
			C1592.4,2015.7,1587.3,2017,1581.9,2017.7z"/>
	</g>
	<g display="inline">
		<path d="M1953.6,1483c0,19.7-0.8,39.4-0.8,59.6C1952.8,1522.1,1953.6,1502.4,1953.6,1483z"/>
	</g>
	<g display="inline">
		<path d="M1952.8,1541.8c-0.8,26.9-2,53.8-4.6,81.2C1951,1596.4,1952.3,1568.7,1952.8,1541.8z"/>
	</g>
	<g display="inline">
		<path d="M1948.5,1623c-1.3,16.4-3.8,32-7.2,47.9C1944.4,1655.3,1946.4,1639.4,1948.5,1623z"/>
	</g>
	<g display="inline">
		<path d="M1675.8,1993.9c-9.7,3.8-20.2,7.2-30.7,9.7C1655.4,2001.4,1665.9,1998,1675.8,1993.9z"/>
	</g>
	<g display="inline">
		<path d="M1645.6,2003.9c-10.5,3.3-21,5.1-31.5,7.9C1624.6,2009.8,1635.1,2007.3,1645.6,2003.9z"/>
	</g>
	<g display="inline">
		<path d="M116,1899c-15.1-15.1-29.4-32-42-49.2C86.6,1867,100.9,1883.3,116,1899z"/>
	</g>
	<g display="inline">
		<path d="M1409.1,2027.5c19.7,0,39.4,0,59.6-0.8C1449,2027.5,1428.5,2027.5,1409.1,2027.5L1409.1,2027.5z"/>
	</g>
	<g display="inline">
		<path d="M472.4,2026.2c-21.5-0.8-43.3-1.3-64.8-3.3C429.1,2024.9,450.9,2025.4,472.4,2026.2z"/>
	</g>
	<g display="inline">
		<path d="M1517.1,2024.1c-16.4,1.3-32.8,2-48.4,2C1485.1,2026.2,1500.7,2025.4,1517.1,2024.1z"/>
	</g>
	<g display="inline">
		<path d="M1581.9,2017.7c-21.5,3.3-43.3,5.1-64.8,6.7C1538.9,2022.9,1560.4,2020.8,1581.9,2017.7z"/>
	</g>
</g>
<g id="Layer_2" display="none">
	<g display="inline">
		<path fill="#CCCCCC" d="M1069.6,68.1L1069.6,68.1h269.8c23,0,47.1,0,70.1,0c23.6,0,42.5,0.8,59.6,0.8
			c37.9,0.8,83.2,3.3,128.5,11.8c44.5,8.4,84,21,120.6,39.4c37.9,18.9,72.2,44.5,102.9,74.8c30.2,30.2,55,64.8,74.8,102.9
			c18.9,36.6,32,76.8,39.4,120.6c8.4,45.3,10.5,90.4,11.3,128.5c0.8,17.2,0.8,35.3,0.8,59.6c0,23,0,47.1,0,70.1v270.1v196.6v270.1
			c0,23,0,47.1,0,70.1c0,23.6-0.8,42.5-0.8,59.6c-0.8,35.3-3.3,82.7-11.3,128.5c-8.4,44.5-21,84-39.4,120.6
			c-18.9,37.9-44.5,72.2-74.8,102.9c-30.2,30.2-64.8,55-102.9,74.8c-36.6,18.9-76.8,32-120.6,39.4c-45.3,8.4-90.4,10.5-128.5,11.8
			c-17.2,0.8-35.3,0.8-59.6,0.8c-23,0-47.1,0-70.1,0h-18.9H873H602.9c-23,0-47.1,0-70.1,0c-23.6,0-42.5-0.8-59.6-0.8
			c-37.9-1.3-83.2-3.3-128.5-11.8c-44.5-8.4-84-21-120.6-39.4c-37.9-18.9-72.2-44.5-102.9-74.8c-30.2-30.2-55-64.8-74.8-102.9
			c-18.9-36.6-32-76.8-39.4-120.6c-8.4-45.3-10.5-90.4-11.3-128.5c-0.8-17.2-0.8-35.3-0.8-59.6c0-23,0-47.1,0-70.1v-270.6V946.1
			V676.1c0-23,0-47.1,0-70.1c0-23.6,0.8-42.5,0.8-59.6C-3.5,510.9-1,463.6,7,417.7c8.4-44.5,21-84,39.4-120.6
			c18.9-37.9,44.5-72.2,74.8-102.9c30.2-30.2,64.8-55,102.9-74.8c36.6-18.9,76.8-32,120.6-39.4c45.3-8.4,90.4-10.5,128.5-11.8
			c17.2-0.8,35.3-0.8,59.6-0.8c23,0,47.1,0,70.1,0H873L1069.6,68.1 M1339.5,61.4h-269.8H1320H873H602.9c-23,0-47.1,0-70.1,0
			c-19.7,0-39.4,0.8-59.6,0.8c-43.3,1.3-86.5,3.3-129,11.8c-42.5,7.2-83.2,20.2-122.6,39.9c-38.7,19.7-74,45.3-104.2,76
			c-30.7,30.7-55.8,66.3-76,104.2C21.6,333.5,8.5,374,1.3,417.2c-7.2,42.5-10.5,85.8-11.8,129c-0.8,20.2-1.3,39.9-1.3,60.4
			c0,23,0,47.1,0,70.1v269.3v196.6v270.1c0,23,0,47.1,0,70.1c0,19.7,0.8,39.4,0.8,59.6c1.3,43.3,3.3,86.5,11.8,129
			c7.2,43.3,20.2,83.2,39.9,123.1c19.7,38.7,45.3,74,76,104.2c30.7,30.2,66.3,55.8,104.2,76c39.4,19.7,79.4,32.8,123.1,39.9
			c42.5,7.2,85.8,10.5,129,11.8c19.7,0.8,39.4,0.8,59.6,0.8c23,0,47.1,0,70.1,0H873h447.5h18.9c23,0,47.1,0,70.1,0
			c19.7,0,39.4-0.8,59.6-0.8c43.3-1.3,86.5-3.3,129-11.8c43.3-7.2,83.2-20.2,123.1-39.9c38.7-19.7,74-45.3,104.2-76
			c30.7-30.7,55.8-66.3,76-104.2c19.7-39.4,32.8-79.9,39.9-123.1c7.2-42.5,10.5-85.8,11.8-129c0.8-19.7,0.8-39.4,0.8-59.6
			c0-23,0-47.1,0-70.1v-270.1V946.1V676.1c0-23,0-47.1,0-70.1c0-19.7-0.8-39.4-0.8-59.6c-1.3-43.3-3.3-86.5-11.8-129
			c-7.2-43.3-20.2-83.2-39.9-123.1c-19.5-38.7-45.1-74-75.8-104.2c-30.7-30.7-66.3-55.8-104.2-76c-39.4-19.7-79.4-32.8-123.1-39.9
			c-42.5-7.2-85.8-10.5-129-11.8c-18.9-0.8-38.7-1.3-58.9-1.3C1386.8,61.4,1363,61.4,1339.5,61.4L1339.5,61.4z"/>
	</g>
</g>
<g opacity="0.25">
	<path d="M1433.9,605.5c3.1,0,6.2,0,9.3,0c3.6,0,6.4,0.1,9,0.1c5.8,0.2,12.7,0.5,19.6,1.7c6.8,1.2,12.8,3.2,18.5,6.1
		c5.8,3,11.1,6.8,15.7,11.4c4.6,4.6,8.4,9.9,11.4,15.7c2.9,5.6,4.9,11.7,6.1,18.5c1.2,6.9,1.6,13.7,1.7,19.6c0.1,2.6,0.1,5.4,0.1,9
		c0,3.3,0,6.7,0,10v0.7v112.3v0.7c0,3.3,0,6.7,0,10c0,3.6-0.1,6.4-0.1,9c-0.2,5.8-0.5,12.7-1.7,19.6c-1.2,6.8-3.2,12.8-6.1,18.5
		c-3,5.8-6.8,11.1-11.4,15.7c-4.6,4.6-9.9,8.5-15.7,11.4c-5.6,2.9-11.7,4.9-18.5,6.1c-6.9,1.2-13.7,1.6-19.6,1.7
		c-3.3,0.1-6.6,0.1-9,0.1c-3.2,0-6.4,0-9.7,0h-1.1h-112.3h-1.1c-3.2,0-6.4,0-9.7,0c-2.5,0-5.7,0-9-0.1c-5.8-0.2-12.7-0.5-19.6-1.7
		c-6.8-1.2-12.8-3.2-18.5-6.1c-5.8-3-11.1-6.8-15.7-11.4c-4.6-4.6-8.4-9.9-11.4-15.7c-2.9-5.6-4.9-11.7-6.1-18.5
		c-1.2-6.9-1.6-13.7-1.7-19.6c-0.1-2.6-0.1-5.4-0.1-9c0-3.3,0-6.7,0-10v-0.7V698.4v-0.7c0-3.3,0-6.7,0-10c0-3.6,0.1-6.4,0.1-9
		c0.2-5.8,0.5-12.7,1.7-19.6c1.2-6.8,3.2-12.8,6.1-18.5c3-5.8,6.8-11.1,11.4-15.7c4.6-4.6,9.9-8.5,15.7-11.4
		c5.6-2.9,11.7-4.9,18.5-6.1c6.9-1.2,13.7-1.6,19.6-1.7c2.6-0.1,5.4-0.1,9-0.1c3.1,0,6.2,0,9.3,0h0.7l0.7,0h112.3l0.7,0H1433.9
		 M1433.9,604.5c-0.5,0-1,0-1.5,0h-112.3c-0.5,0-1,0-1.5,0c-3.1,0-6.2,0-9.3,0c-3,0-6,0.1-9.1,0.1c-6.6,0.2-13.2,0.6-19.7,1.7
		c-6.6,1.2-12.7,3.1-18.7,6.2c-5.9,3-11.3,6.9-16,11.6c-4.7,4.7-8.6,10.1-11.6,16c-3.1,6-5,12.1-6.2,18.7
		c-1.2,6.5-1.6,13.1-1.7,19.7c-0.1,3-0.1,6-0.1,9.1c0,3.6,0,7.2,0,10.7v112.3c0,3.6,0,7.2,0,10.7c0,3,0.1,6,0.1,9.1
		c0.2,6.6,0.6,13.2,1.7,19.7c1.2,6.6,3.1,12.7,6.2,18.7c3,5.9,6.9,11.3,11.6,16c4.7,4.7,10.1,8.6,16,11.6c6,3.1,12.1,5,18.7,6.2
		c6.5,1.2,13.1,1.6,19.7,1.7c3,0.1,6,0.1,9.1,0.1c3.2,0,6.4,0,9.7,0c0.4,0,0.7,0,1.1,0h112.3c0.4,0,0.7,0,1.1,0c3.2,0,6.4,0,9.7,0
		c3,0,6-0.1,9.1-0.1c6.6-0.2,13.2-0.6,19.7-1.7c6.6-1.2,12.7-3.1,18.7-6.2c5.9-3,11.3-6.9,16-11.6s8.6-10.1,11.6-16
		c3.1-6,5-12.1,6.2-18.7c1.2-6.5,1.6-13.1,1.7-19.7c0.1-3,0.1-6,0.1-9.1c0-3.6,0-7.2,0-10.7V698.4c0-3.6,0-7.2,0-10.7
		c0-3-0.1-6-0.1-9.1c-0.2-6.6-0.6-13.2-1.7-19.7c-1.2-6.6-3.1-12.7-6.2-18.7c-3-5.9-6.9-11.3-11.6-16c-4.7-4.7-10.1-8.6-16-11.6
		c-6-3.1-12.1-5-18.7-6.2c-6.5-1.2-13.1-1.6-19.7-1.7c-3-0.1-6-0.1-9.1-0.1C1440.1,604.5,1437,604.5,1433.9,604.5L1433.9,604.5z"/>
</g>
<g>
	<path d="M644.8,685.5c1.4,0,2.9,0,4.3,0c1.7,0,3,0,4.2,0.1c2.7,0.1,5.9,0.2,9,0.8c3.1,0.6,5.9,1.5,8.5,2.8c2.7,1.4,5.1,3.1,7.2,5.2
		c2.1,2.1,3.9,4.5,5.2,7.2c1.3,2.6,2.2,5.4,2.8,8.5c0.6,3.2,0.7,6.4,0.8,9c0,1.2,0.1,2.5,0.1,4.2c0,1.6,0,3.1,0,4.7v0.3v52.4v0.3
		c0,1.6,0,3.1,0,4.7c0,1.7,0,3-0.1,4.2c-0.1,2.7-0.2,5.9-0.8,9c-0.6,3.1-1.5,5.9-2.8,8.5c-1.4,2.7-3.1,5.1-5.2,7.2
		c-2.1,2.1-4.5,3.9-7.2,5.2c-2.6,1.3-5.4,2.2-8.5,2.8c-3.2,0.6-6.4,0.7-9,0.8c-1.5,0-3.1,0.1-4.2,0.1c-1.5,0-3,0-4.5,0h-0.5h-52.4
		h-0.5c-1.5,0-3,0-4.5,0c-1.1,0-2.7,0-4.2-0.1c-2.7-0.1-5.9-0.2-9-0.8c-3.1-0.6-5.9-1.5-8.5-2.8c-2.7-1.4-5.1-3.1-7.2-5.2
		c-2.1-2.1-3.9-4.5-5.2-7.2c-1.3-2.6-2.2-5.4-2.8-8.5c-0.6-3.2-0.7-6.3-0.8-9c0-1.2-0.1-2.5-0.1-4.2c0-1.6,0-3.1,0-4.7v-0.3v-52.4
		V728c0-1.6,0-3.1,0-4.7c0-1.7,0-3,0.1-4.2c0.1-2.7,0.2-5.9,0.8-9c0.6-3.1,1.5-5.9,2.8-8.5c1.4-2.7,3.1-5.1,5.2-7.2
		c2.1-2.1,4.5-3.9,7.2-5.2c2.6-1.3,5.4-2.2,8.5-2.8c3.2-0.6,6.4-0.7,9-0.8c1.2,0,2.5-0.1,4.2-0.1c1.4,0,2.9,0,4.3,0h0.3h0.3h52.4
		h0.3H644.8 M644.8,684.5c-0.2,0-0.4,0-0.7,0h-52.4c-0.2,0-0.4,0-0.7,0c-1.4,0-2.9,0-4.3,0c-1.4,0-2.8,0-4.2,0.1
		c-3.1,0.1-6.2,0.3-9.2,0.8c-3.1,0.6-5.9,1.5-8.7,2.9c-2.7,1.4-5.3,3.2-7.4,5.4c-2.2,2.2-4,4.7-5.4,7.4c-1.4,2.8-2.3,5.7-2.9,8.7
		c-0.5,3-0.7,6.1-0.8,9.2c0,1.4-0.1,2.8-0.1,4.2c0,1.7,0,3.3,0,5v52.4c0,1.7,0,3.3,0,5c0,1.4,0,2.8,0.1,4.2c0.1,3.1,0.3,6.2,0.8,9.2
		c0.6,3.1,1.5,5.9,2.9,8.7c1.4,2.7,3.2,5.3,5.4,7.4c2.2,2.2,4.7,4,7.4,5.4c2.8,1.4,5.7,2.3,8.7,2.9c3,0.5,6.1,0.7,9.2,0.8
		c1.4,0,2.8,0.1,4.2,0.1c1.5,0,3,0,4.5,0c0.2,0,0.3,0,0.5,0h52.4c0.2,0,0.3,0,0.5,0c1.5,0,3,0,4.5,0c1.4,0,2.8,0,4.2-0.1
		c3.1-0.1,6.2-0.3,9.2-0.8c3.1-0.6,5.9-1.5,8.7-2.9c2.7-1.4,5.3-3.2,7.4-5.4c2.2-2.2,4-4.7,5.4-7.4c1.4-2.8,2.3-5.7,2.9-8.7
		c0.5-3,0.7-6.1,0.8-9.2c0-1.4,0.1-2.8,0.1-4.2c0-1.7,0-3.3,0-5v-52.4c0-1.7,0-3.3,0-5c0-1.4,0-2.8-0.1-4.2
		c-0.1-3.1-0.3-6.2-0.8-9.2c-0.6-3.1-1.5-5.9-2.9-8.7c-1.4-2.7-3.2-5.3-5.4-7.4c-2.2-2.2-4.7-4-7.4-5.4c-2.8-1.4-5.7-2.3-8.7-2.9
		c-3-0.5-6.1-0.7-9.2-0.8c-1.4,0-2.8-0.1-4.2-0.1C647.7,684.5,646.2,684.5,644.8,684.5L644.8,684.5z"/>
</g>
<g>
	<path d="M1013.4,728.3c0-1.7,0-3.3,0-5c0-1.4,0-2.8-0.1-4.2c-0.1-3.1-0.3-6.2-0.8-9.2c-0.6-3.1-1.5-5.9-2.9-8.7
		c-1.4-2.7-3.2-5.3-5.4-7.4c-2.2-2.2-4.7-4-7.4-5.4c-2.8-1.4-5.7-2.3-8.7-2.9c-3-0.5-6.1-0.7-9.2-0.8c-1.4,0-2.8-0.1-4.2-0.1
		c-1.7,0-3.3,0-5,0h-52.4c-1.7,0-3.3,0-5,0c-1.4,0-2.8,0-4.2,0.1c-3.1,0.1-6.2,0.3-9.2,0.8c-3.1,0.6-5.9,1.5-8.7,2.9
		c-2.7,1.4-5.3,3.2-7.4,5.4c-2.2,2.2-4,4.7-5.4,7.4c-1.4,2.8-2.3,5.7-2.9,8.7c-0.5,3-0.7,6.1-0.8,9.2c0,1.4-0.1,2.8-0.1,4.2
		c0,1.7,0,3.3,0,5v52.4c0,1.7,0,3.3,0,5c0,1.4,0,2.8,0.1,4.2c0.1,3.1,0.3,6.2,0.8,9.2c0.6,3.1,1.5,5.9,2.9,8.7
		c1.4,2.7,3.2,5.3,5.4,7.4c2.2,2.2,4.7,4,7.4,5.4c2.8,1.4,5.7,2.3,8.7,2.9c3,0.5,6.1,0.7,9.2,0.8c1.4,0,2.8,0.1,4.2,0.1
		c1.7,0,3.3,0,5,0h52.4c1.7,0,3.3,0,5,0c1.4,0,2.8,0,4.2-0.1c3.1-0.1,6.2-0.3,9.2-0.8c3.1-0.6,5.9-1.5,8.7-2.9
		c2.7-1.4,5.3-3.2,7.4-5.4c2.2-2.2,4-4.7,5.4-7.4c1.4-2.8,2.3-5.7,2.9-8.7c0.5-3,0.7-6.1,0.8-9.2c0-1.4,0.1-2.8,0.1-4.2
		c0-1.7,0-3.3,0-5V728.3z"/>
</g>
</svg>
